
            <svg id="mySVG" style="background-color:white;" width="800px" height="400px" version="1.1" xmlns="http://www.w3.org/2000/svg"><path d="M211.16668701171875 190.28334045410156 L210.16668701171875 191.28334045410156 L210.16668701171875 194.28334045410156 L225.16668701171875 207.28334045410156 L241.16668701171875 215.28334045410156 L267.16668701171875 225.28334045410156 L334.16668701171875 238.28334045410156 L373.16668701171875 243.28334045410156 L439.16668701171875 247.28334045410156 L482.16668701171875 247.28334045410156 L494.16668701171875 247.28334045410156" stroke="#fc9117" stroke-width="5" fill="none"></path>
<path d="M294.16668701171875 272.6166687011719 L287.16668701171875 272.6166687011719 L281.16668701171875 272.6166687011719 L273.16668701171875 272.6166687011719 L256.16668701171875 271.78334045410156 L247.16668701171875 271.78334045410156 L237.16668701171875 270.75 L232.16668701171875 268 L231.16668701171875 267 L228.16668701171875 264 L226.16668701171875 263 L222.16668701171875 260.8333282470703 L221.16668701171875 257.8333282470703 L220.16668701171875 255.18333435058594 L220.16668701171875 252.18333435058594 L220.16668701171875 250.18333435058594 L220.16668701171875 246.6666717529297 L220.16668701171875 243.6666717529297 L220.16668701171875 240.6666717529297 L220.16668701171875 236.4166717529297 L225.16668701171875 233.51666259765625 L232.16668701171875 228.51666259765625 L241.16668701171875 226.51666259765625 L252.16668701171875 222.51666259765625 L265.16668701171875 222.51666259765625 L273.16668701171875 220.51666259765625 L280.16668701171875 220.51666259765625 L287.16668701171875 220.51666259765625 L294.16668701171875 220.51666259765625 L300.16668701171875 220.51666259765625 L307.16668701171875 220.51666259765625 L314.16668701171875 220.51666259765625 L319.16668701171875 222.51666259765625 L331.16668701171875 223.51666259765625 L338.16668701171875 227.51666259765625 L347.16668701171875 229.51666259765625 L356.16668701171875 231.51666259765625 L366.16668701171875 233.51666259765625 L373.16668701171875 237.51666259765625 L381.16668701171875 237.51666259765625 L382.16668701171875 237.51666259765625 L385.16668701171875 236.51666259765625 L389.16668701171875 232.51666259765625 L393.16668701171875 228.51666259765625 L395.16668701171875 221.51666259765625 L398.16668701171875 213.51666259765625 L400.16668701171875 204.51666259765625 L400.16668701171875 193.51666259765625 L400.16668701171875 182.51666259765625 L400.16668701171875 172.51666259765625 L400.16668701171875 160.51666259765625 L400.16668701171875 152.51666259765625 L400.16668701171875 145.51666259765625 L398.16668701171875 137.51666259765625 L396.16668701171875 136.51666259765625 L394.16668701171875 135.51666259765625 L393.16668701171875 134.51666259765625 L390.16668701171875 134.51666259765625 L386.16668701171875 134.51666259765625 L385.16668701171875 134.51666259765625 L383.16668701171875 134.51666259765625 L382.16668701171875 134.51666259765625 L379.16668701171875 137.51666259765625 L378.16668701171875 144.51666259765625 L378.16668701171875 156.51666259765625 L374.16668701171875 166.51666259765625 L374.16668701171875 179.51666259765625 L374.16668701171875 192.51666259765625 L374.16668701171875 205.51666259765625 L374.16668701171875 219.51666259765625 L380.16668701171875 231.51666259765625 L382.16668701171875 244.51666259765625 L394.16668701171875 271.51666259765625 L407.16668701171875 296.51666259765625 L412.16668701171875 304.51666259765625 L414.16668701171875 306.51666259765625" stroke="#402200" stroke-width="5" fill="none"></path>
<path d="M584.1666870117188 150.85000610351562 L576.1666870117188 150.85000610351562 L572.1666870117188 152.35000610351562 L567.1666870117188 155.35000610351562 L553.1666870117188 168.35000610351562 L551.1666870117188 175.18333435058594 L547.1666870117188 182.18333435058594 L547.1666870117188 192.18333435058594 L547.1666870117188 210.18333435058594 L547.1666870117188 220.46665954589844 L547.1666870117188 229.46665954589844 L547.1666870117188 236.46665954589844 L547.1666870117188 252.46665954589844 L546.1666870117188 254.46665954589844 L543.1666870117188 258.51666259765625 L542.1666870117188 258.51666259765625 L541.1666870117188 258.51666259765625 L528.1666870117188 240.51666259765625 L519.1666870117188 184.51666259765625 L519.1666870117188 129.51666259765625 L530.1666870117188 70.51666259765625 L543.1666870117188 57.51666259765625 L546.1666870117188 54.51666259765625 L553.1666870117188 57.51666259765625 L563.1666870117188 66.51666259765625 L570.1666870117188 70.51666259765625 L616.1666870117188 94.51666259765625 L620.1666870117188 95.51666259765625 L621.1666870117188 97.51666259765625 L623.1666870117188 114.51666259765625 L625.1666870117188 135.51666259765625 L629.1666870117188 146.51666259765625 L639.1666870117188 166.51666259765625 L647.1666870117188 177.51666259765625 L668.1666870117188 196.51666259765625 L670.1666870117188 196.51666259765625 L671.1666870117188 196.51666259765625 L675.1666870117188 194.51666259765625 L675.1666870117188 190.51666259765625 L675.1666870117188 179.51666259765625 L675.1666870117188 165.51666259765625 L675.1666870117188 151.51666259765625 L675.1666870117188 137.51666259765625 L672.1666870117188 126.51666259765625 L669.1666870117188 121.51666259765625 L667.1666870117188 116.51666259765625 L666.1666870117188 114.51666259765625 L662.1666870117188 113.51666259765625 L661.1666870117188 113.51666259765625 L658.1666870117188 113.51666259765625" stroke="#402200" stroke-width="5" fill="none"></path>
<path d="M101.16668701171875 219.51666259765625 L101.16668701171875 217.51666259765625 L103.16668701171875 214.51666259765625 L105.16668701171875 212.51666259765625 L106.16668701171875 210.51666259765625 L107.16668701171875 210.51666259765625 L111.16668701171875 210.51666259765625 L113.16668701171875 210.51666259765625 L117.16668701171875 210.51666259765625 L123.16668701171875 210.51666259765625 L131.16668701171875 210.51666259765625 L134.16668701171875 210.51666259765625 L140.16668701171875 210.51666259765625 L145.16668701171875 212.51666259765625 L151.16668701171875 213.51666259765625 L158.16668701171875 213.51666259765625 L160.16668701171875 213.51666259765625 L163.16668701171875 213.51666259765625 L164.16668701171875 213.51666259765625 L169.16668701171875 211.51666259765625 L171.16668701171875 208.51666259765625 L175.16668701171875 200.51666259765625 L181.16668701171875 189.51666259765625 L183.16668701171875 176.51666259765625 L183.16668701171875 166.51666259765625 L183.16668701171875 154.51666259765625 L183.16668701171875 142.51666259765625 L183.16668701171875 134.51666259765625 L181.16668701171875 126.51666259765625 L178.16668701171875 121.51666259765625 L175.16668701171875 117.51666259765625 L172.16668701171875 116.51666259765625 L163.16668701171875 113.51666259765625 L154.16668701171875 113.51666259765625 L141.16668701171875 113.51666259765625 L124.16668701171875 113.51666259765625 L113.16668701171875 113.51666259765625 L103.16668701171875 122.51666259765625 L92.16668701171875 133.51666259765625 L86.16668701171875 141.51666259765625 L84.16668701171875 151.51666259765625 L80.16668701171875 161.51666259765625 L80.16668701171875 171.51666259765625 L80.16668701171875 181.51666259765625 L78.16668701171875 190.51666259765625 L78.16668701171875 202.51666259765625 L78.16668701171875 214.51666259765625 L78.16668701171875 227.51666259765625 L75.16668701171875 239.51666259765625 L73.16668701171875 251.51666259765625 L73.16668701171875 263.51666259765625 L69.16668701171875 276.51666259765625 L69.16668701171875 281.51666259765625 L67.16668701171875 284.51666259765625 L66.16668701171875 284.51666259765625 L65.16668701171875 284.51666259765625 L63.16668701171875 284.51666259765625 L60.16668701171875 281.51666259765625 L56.16668701171875 277.51666259765625 L51.16668701171875 270.51666259765625 L49.16668701171875 259.51666259765625 L49.16668701171875 249.51666259765625 L49.16668701171875 239.51666259765625 L49.16668701171875 230.51666259765625 L49.16668701171875 222.51666259765625 L54.16668701171875 215.51666259765625 L58.16668701171875 213.51666259765625 L60.16668701171875 213.51666259765625 L66.16668701171875 213.51666259765625 L94.16668701171875 222.51666259765625 L108.16668701171875 238.51666259765625 L125.16668701171875 259.51666259765625 L144.16668701171875 284.51666259765625 L160.16668701171875 309.51666259765625 L178.16668701171875 332.51666259765625 L193.16668701171875 347.51666259765625 L208.16668701171875 362.51666259765625 L235.16668701171875 367.51666259765625 L254.16668701171875 370.51666259765625 L278.16668701171875 367.51666259765625 L290.16668701171875 360.51666259765625 L303.16668701171875 349.51666259765625 L314.16668701171875 338.51666259765625 L321.16668701171875 324.51666259765625 L321.16668701171875 306.51666259765625 L321.16668701171875 289.51666259765625 L321.16668701171875 267.51666259765625 L321.16668701171875 246.51666259765625 L321.16668701171875 226.51666259765625 L313.16668701171875 208.51666259765625 L311.16668701171875 189.51666259765625 L306.16668701171875 175.51666259765625 L296.16668701171875 145.51666259765625 L289.16668701171875 131.51666259765625 L283.16668701171875 121.51666259765625 L277.16668701171875 115.51666259765625 L267.16668701171875 113.51666259765625 L257.16668701171875 109.51666259765625 L250.16668701171875 109.51666259765625 L242.16668701171875 109.51666259765625 L237.16668701171875 112.51666259765625 L230.16668701171875 117.51666259765625 L230.16668701171875 122.51666259765625 L230.16668701171875 131.51666259765625 L230.16668701171875 137.51666259765625 L230.16668701171875 146.51666259765625 L230.16668701171875 153.51666259765625 L232.16668701171875 160.51666259765625 L237.16668701171875 166.51666259765625 L241.16668701171875 173.51666259765625 L247.16668701171875 181.51666259765625 L254.16668701171875 188.51666259765625 L284.16668701171875 191.51666259765625 L313.16668701171875 191.51666259765625 L390.16668701171875 191.51666259765625 L441.16668701171875 195.51666259765625 L467.16668701171875 202.51666259765625 L477.16668701171875 209.51666259765625 L479.16668701171875 214.51666259765625 L484.16668701171875 228.51666259765625 L487.16668701171875 248.51666259765625 L487.16668701171875 257.51666259765625 L487.16668701171875 266.51666259765625 L480.16668701171875 275.51666259765625 L472.16668701171875 280.51666259765625 L466.16668701171875 286.51666259765625 L460.16668701171875 286.51666259765625 L459.16668701171875 286.51666259765625 L457.16668701171875 286.51666259765625 L456.16668701171875 285.51666259765625 L456.16668701171875 282.51666259765625 L459.16668701171875 277.51666259765625 L466.16668701171875 271.51666259765625 L477.16668701171875 267.51666259765625 L490.16668701171875 267.51666259765625 L504.16668701171875 267.51666259765625 L526.1666870117188 267.51666259765625 L549.1666870117188 267.51666259765625 L574.1666870117188 274.51666259765625 L595.1666870117188 277.51666259765625 L614.1666870117188 284.51666259765625 L628.1666870117188 291.51666259765625 L640.1666870117188 298.51666259765625 L646.1666870117188 300.51666259765625 L651.1666870117188 303.51666259765625 L656.1666870117188 305.51666259765625 L660.1666870117188 308.51666259765625 L662.1666870117188 308.51666259765625 L668.1666870117188 308.51666259765625 L671.1666870117188 308.51666259765625 L675.1666870117188 308.51666259765625 L677.1666870117188 308.51666259765625 L678.1666870117188 308.51666259765625 L679.1666870117188 306.51666259765625 L679.1666870117188 301.51666259765625 L679.1666870117188 296.51666259765625 L677.1666870117188 286.51666259765625 L676.1666870117188 285.51666259765625 L675.1666870117188 285.51666259765625 L673.1666870117188 285.51666259765625 L670.1666870117188 285.51666259765625 L667.1666870117188 285.51666259765625 L663.1666870117188 288.51666259765625 L663.1666870117188 291.51666259765625 L663.1666870117188 295.51666259765625 L663.1666870117188 296.51666259765625 L663.1666870117188 298.51666259765625 L664.1666870117188 300.51666259765625 L667.1666870117188 301.51666259765625 L668.1666870117188 303.51666259765625 L677.1666870117188 303.51666259765625 L697.1666870117188 300.51666259765625 L704.1666870117188 291.51666259765625 L709.1666870117188 282.51666259765625 L711.1666870117188 271.51666259765625 L716.1666870117188 256.51666259765625 L716.1666870117188 223.51666259765625 L709.1666870117188 201.51666259765625 L704.1666870117188 191.51666259765625 L698.1666870117188 180.51666259765625 L692.1666870117188 174.51666259765625 L685.1666870117188 169.51666259765625 L676.1666870117188 167.51666259765625 L654.1666870117188 167.51666259765625 L644.1666870117188 167.51666259765625" stroke="#402200" stroke-width="5" fill="none"></path>
<path d="M442.16668701171875 190.51666259765625 L436.16668701171875 190.51666259765625 L429.16668701171875 191.51666259765625 L424.16668701171875 198.51666259765625 L420.16668701171875 210.51666259765625 L418.16668701171875 217.51666259765625 L415.16668701171875 221.51666259765625 L412.16668701171875 226.51666259765625 L408.16668701171875 230.51666259765625 L403.16668701171875 232.51666259765625 L395.16668701171875 232.51666259765625 L385.16668701171875 232.51666259765625 L366.16668701171875 232.51666259765625 L348.16668701171875 232.51666259765625 L303.16668701171875 213.51666259765625 L292.16668701171875 205.51666259765625 L286.16668701171875 194.51666259765625 L279.16668701171875 181.51666259765625 L277.16668701171875 154.51666259765625 L277.16668701171875 142.51666259765625 L277.16668701171875 133.51666259765625 L277.16668701171875 125.51666259765625 L283.16668701171875 110.51666259765625 L287.16668701171875 109.51666259765625 L297.16668701171875 109.51666259765625 L365.16668701171875 113.51666259765625 L378.16668701171875 118.51666259765625 L389.16668701171875 124.51666259765625 L423.16668701171875 135.51666259765625 L445.16668701171875 142.51666259765625 L517.1666870117188 128.51666259765625 L517.1666870117188 125.51666259765625 L517.1666870117188 114.51666259765625 L517.1666870117188 108.51666259765625 L485.16668701171875 100.51666259765625 L471.16668701171875 103.51666259765625" stroke="#402200" stroke-width="5" fill="none"></path>
<path d="M113.16668701171875 21.866668701171875 L110.16668701171875 23.866668701171875 L107.16668701171875 27.01666259765625 L105.16668701171875 37.01666259765625 L103.16668701171875 47.01666259765625 L103.16668701171875 54.01666259765625 L103.16668701171875 69.5 L103.16668701171875 83.5 L103.16668701171875 95.51666259765625 L105.16668701171875 108.51666259765625 L106.16668701171875 116.51666259765625 L110.16668701171875 126.51666259765625 L111.16668701171875 135.51666259765625 L114.16668701171875 144.51666259765625 L116.16668701171875 154.51666259765625 L118.16668701171875 165.51666259765625 L121.16668701171875 176.51666259765625 L124.16668701171875 185.51666259765625 L126.16668701171875 194.51666259765625 L130.16668701171875 204.51666259765625 L130.16668701171875 211.51666259765625 L131.16668701171875 219.51666259765625 L131.16668701171875 226.51666259765625 L134.16668701171875 234.51666259765625 L134.16668701171875 242.51666259765625 L134.16668701171875 250.51666259765625 L134.16668701171875 257.51666259765625 L134.16668701171875 267.51666259765625 L134.16668701171875 274.51666259765625 L134.16668701171875 280.51666259765625 L134.16668701171875 281.51666259765625 L134.16668701171875 284.51666259765625" stroke="#402200" stroke-width="5" fill="none"></path>
</svg>
        